<svg width="32" height="32" viewBox="0 0 32 32" fill="none" xmlns="http://www.w3.org/2000/svg">
<g clip-path="url(#clip0_1_824)">
<rect width="32" height="32" rx="3.2" fill="#202124"/>
<path d="M11.0226 13.1056C10.325 13.1056 9.72984 13.3552 9.23704 13.8544C8.74424 14.3472 8.49784 14.9424 8.49784 15.64C8.49784 16.3312 8.74424 16.9232 9.23704 17.416C9.72984 17.9088 10.325 18.1552 11.0226 18.1552H13.4994C13.621 18.1552 13.7234 18.2 13.8066 18.2896C13.8962 18.3728 13.941 18.4752 13.941 18.5968V19H11.0226C10.4146 19 9.85144 18.8496 9.33304 18.5488C8.82104 18.248 8.41464 17.8416 8.11384 17.3296C7.81304 16.8112 7.66264 16.248 7.66264 15.64C7.66264 15.0256 7.81304 14.4624 8.11384 13.9504C8.41464 13.432 8.82104 13.0224 9.33304 12.7216C9.85144 12.4208 10.4146 12.2704 11.0226 12.2704H13.941V12.6736C13.941 12.7184 13.9314 12.7632 13.9122 12.808C13.8994 12.8528 13.8802 12.8944 13.8546 12.9328C13.829 12.9648 13.797 12.9968 13.7586 13.0288C13.7266 13.0544 13.6882 13.0736 13.6434 13.0864C13.5986 13.0992 13.5506 13.1056 13.4994 13.1056H11.0226Z" fill="white"/>
<path d="M9.23704 13.8544L10.3684 14.9858L10.3757 14.9784L9.23704 13.8544ZM9.23704 17.416L10.3684 16.2846H10.3684L9.23704 17.416ZM13.8066 18.2896L12.6342 19.3783L12.6745 19.4217L12.7179 19.4621L13.8066 18.2896ZM13.941 19V20.6H15.541V19H13.941ZM9.33304 18.5488L8.52255 19.9284L8.53003 19.9327L9.33304 18.5488ZM8.11384 17.3296L6.72992 18.1326L6.7343 18.1401L8.11384 17.3296ZM8.11384 13.9504L9.49339 14.7609L9.49774 14.7534L8.11384 13.9504ZM9.33304 12.7216L8.53002 11.3377L8.52256 11.3421L9.33304 12.7216ZM13.941 12.2704H15.541V10.6704H13.941V12.2704ZM13.9122 12.808L12.4416 12.1777L12.4017 12.2709L12.3738 12.3685L13.9122 12.808ZM13.8546 12.9328L15.104 13.9323L15.1474 13.8781L15.1859 13.8203L13.8546 12.9328ZM13.7586 13.0288L14.7582 14.2782L14.7706 14.2682L14.7829 14.258L13.7586 13.0288ZM13.6434 13.0864L13.2039 11.548L13.2039 11.548L13.6434 13.0864ZM11.0226 11.5056C9.89445 11.5056 8.88994 11.9285 8.09839 12.7304L10.3757 14.9784C10.5697 14.7819 10.7556 14.7056 11.0226 14.7056V11.5056ZM8.10567 12.723C7.31248 13.5162 6.89784 14.5185 6.89784 15.64H10.0978C10.0978 15.3663 10.176 15.1782 10.3684 14.9858L8.10567 12.723ZM6.89784 15.64C6.89784 16.7595 7.3156 17.7573 8.10567 18.5474L10.3684 16.2846C10.1729 16.0891 10.0978 15.9029 10.0978 15.64H6.89784ZM8.10567 18.5474C8.89885 19.3406 9.90115 19.7552 11.0226 19.7552V16.5552C10.7489 16.5552 10.5608 16.477 10.3684 16.2846L8.10567 18.5474ZM11.0226 19.7552H13.4994V16.5552H11.0226V19.7552ZM13.4994 19.7552C13.3591 19.7552 13.1944 19.7283 13.0261 19.6547C12.8581 19.5811 12.7277 19.4791 12.6342 19.3783L14.9791 17.2009C14.5951 16.7873 14.0687 16.5552 13.4994 16.5552V19.7552ZM12.7179 19.4621C12.6171 19.3685 12.5151 19.2382 12.4416 19.0701C12.368 18.9019 12.341 18.7371 12.341 18.5968H15.541C15.541 18.0275 15.3089 17.5012 14.8954 17.1171L12.7179 19.4621ZM12.341 18.5968V19H15.541V18.5968H12.341ZM13.941 17.4H11.0226V20.6H13.941V17.4ZM11.0226 17.4C10.6924 17.4 10.4068 17.322 10.136 17.1649L8.53003 19.9327C9.29605 20.3772 10.1369 20.6 11.0226 20.6V17.4ZM10.1435 17.1693C9.86659 17.0066 9.65607 16.796 9.49337 16.5191L6.7343 18.1401C7.1732 18.8871 7.77549 19.4894 8.52256 19.9283L10.1435 17.1693ZM9.49774 16.5266C9.34062 16.2558 9.26264 15.9702 9.26264 15.64H6.06264C6.06264 16.5258 6.28546 17.3666 6.72994 18.1326L9.49774 16.5266ZM9.26264 15.64C9.26264 15.3002 9.34207 15.0184 9.49337 14.7609L6.7343 13.1399C6.284 13.9064 6.06264 14.751 6.06264 15.64H9.26264ZM9.49774 14.7534C9.66159 14.471 9.87142 14.261 10.1435 14.1011L8.52256 11.3421C7.77065 11.7838 7.16769 12.393 6.72994 13.1474L9.49774 14.7534ZM10.136 14.1055C10.4068 13.9484 10.6924 13.8704 11.0226 13.8704V10.6704C10.1369 10.6704 9.29605 10.8932 8.53003 11.3377L10.136 14.1055ZM11.0226 13.8704H13.941V10.6704H11.0226V13.8704ZM12.341 12.2704V12.6736H15.541V12.2704H12.341ZM12.341 12.6736C12.341 12.4833 12.383 12.3144 12.4416 12.1777L15.3829 13.4383C15.4798 13.212 15.541 12.9535 15.541 12.6736H12.341ZM12.3738 12.3685C12.406 12.2557 12.4563 12.1459 12.5234 12.0453L15.1859 13.8203C15.3042 13.6429 15.3929 13.4499 15.4507 13.2475L12.3738 12.3685ZM12.6052 11.9333C12.6595 11.8655 12.7075 11.822 12.7343 11.7996L14.7829 14.258C14.8866 14.1716 14.9986 14.0641 15.104 13.9323L12.6052 11.9333ZM12.7591 11.7794C12.9139 11.6556 13.0725 11.5855 13.2039 11.548L14.083 14.6248C14.304 14.5617 14.5393 14.4532 14.7582 14.2782L12.7591 11.7794ZM13.2039 11.548C13.3154 11.5161 13.4165 11.5056 13.4994 11.5056V14.7056C13.6848 14.7056 13.8819 14.6823 14.083 14.6248L13.2039 11.548ZM13.4994 11.5056H11.0226V14.7056H13.4994V11.5056Z" fill="white"/>
<path d="M19.3176 15.6304L23.676 19H22.6584C22.3896 19 22.1496 18.9168 21.9384 18.7504L17.8968 15.6304L21.9384 12.5104C22.1496 12.3504 22.3864 12.2704 22.6488 12.2704H22.812H23.1192H23.676L19.3176 15.6304Z" fill="white"/>
<path d="M19.3176 15.6304L18.3407 14.3632L16.6994 15.6286L18.339 16.8962L19.3176 15.6304ZM23.676 19V20.6H28.3614L24.6546 17.7342L23.676 19ZM21.9384 18.7504L22.9286 17.4936L22.9224 17.4887L22.9161 17.4839L21.9384 18.7504ZM17.8968 15.6304L16.9191 14.3639L15.2785 15.6304L16.9191 16.8969L17.8968 15.6304ZM21.9384 12.5104L20.9722 11.2351L20.9664 11.2394L20.9607 11.2439L21.9384 12.5104ZM23.676 12.2704L24.6529 13.5376L28.372 10.6704H23.676V12.2704ZM18.339 16.8962L22.6974 20.2658L24.6546 17.7342L20.2962 14.3646L18.339 16.8962ZM23.676 17.4H22.6584V20.6H23.676V17.4ZM22.6584 17.4C22.6919 17.4 22.7427 17.4057 22.8009 17.4259C22.859 17.446 22.9024 17.4729 22.9286 17.4936L20.9482 20.0072C21.4415 20.3958 22.0303 20.6 22.6584 20.6V17.4ZM22.9161 17.4839L18.8745 14.3639L16.9191 16.8969L20.9607 20.0169L22.9161 17.4839ZM18.8745 16.8969L22.9161 13.7769L20.9607 11.2439L16.9191 14.3639L18.8745 16.8969ZM22.9046 13.7857C22.8811 13.8036 22.841 13.8278 22.7865 13.8462C22.7319 13.8647 22.683 13.8704 22.6488 13.8704V10.6704C22.0339 10.6704 21.4586 10.8666 20.9722 11.2351L22.9046 13.7857ZM22.6488 13.8704H22.812V10.6704H22.6488V13.8704ZM22.812 13.8704H23.1192V10.6704H22.812V13.8704ZM23.1192 13.8704H23.676V10.6704H23.1192V13.8704ZM22.6991 11.0032L18.3407 14.3632L20.2945 16.8976L24.6529 13.5376L22.6991 11.0032Z" fill="white"/>
</g>
<defs>
<clipPath id="clip0_1_824">
<rect width="32" height="32" rx="3.2" fill="white"/>
</clipPath>
</defs>
</svg>
