<svg width="167" height="32" viewBox="0 0 167 32" fill="none" xmlns="http://www.w3.org/2000/svg">
<g clip-path="url(#clip0_1_823)">
<rect width="32" height="32" rx="3.2" fill="#202124"/>
<path d="M11.0226 13.1056C10.325 13.1056 9.72984 13.3552 9.23704 13.8544C8.74424 14.3472 8.49784 14.9424 8.49784 15.64C8.49784 16.3312 8.74424 16.9232 9.23704 17.416C9.72984 17.9088 10.325 18.1552 11.0226 18.1552H13.4994C13.621 18.1552 13.7234 18.2 13.8066 18.2896C13.8962 18.3728 13.941 18.4752 13.941 18.5968V19H11.0226C10.4146 19 9.85144 18.8496 9.33304 18.5488C8.82104 18.248 8.41464 17.8416 8.11384 17.3296C7.81304 16.8112 7.66264 16.248 7.66264 15.64C7.66264 15.0256 7.81304 14.4624 8.11384 13.9504C8.41464 13.432 8.82104 13.0224 9.33304 12.7216C9.85144 12.4208 10.4146 12.2704 11.0226 12.2704H13.941V12.6736C13.941 12.7184 13.9314 12.7632 13.9122 12.808C13.8994 12.8528 13.8802 12.8944 13.8546 12.9328C13.829 12.9648 13.797 12.9968 13.7586 13.0288C13.7266 13.0544 13.6882 13.0736 13.6434 13.0864C13.5986 13.0992 13.5506 13.1056 13.4994 13.1056H11.0226Z" fill="white"/>
<path d="M9.23704 13.8544L10.3684 14.9858L10.3757 14.9784L9.23704 13.8544ZM9.23704 17.416L10.3684 16.2846H10.3684L9.23704 17.416ZM13.8066 18.2896L12.6342 19.3783L12.6745 19.4217L12.7179 19.4621L13.8066 18.2896ZM13.941 19V20.6H15.541V19H13.941ZM9.33304 18.5488L8.52255 19.9284L8.53003 19.9327L9.33304 18.5488ZM8.11384 17.3296L6.72992 18.1326L6.7343 18.1401L8.11384 17.3296ZM8.11384 13.9504L9.49339 14.7609L9.49774 14.7534L8.11384 13.9504ZM9.33304 12.7216L8.53002 11.3377L8.52256 11.3421L9.33304 12.7216ZM13.941 12.2704H15.541V10.6704H13.941V12.2704ZM13.9122 12.808L12.4416 12.1777L12.4017 12.2709L12.3738 12.3685L13.9122 12.808ZM13.8546 12.9328L15.104 13.9323L15.1474 13.8781L15.1859 13.8203L13.8546 12.9328ZM13.7586 13.0288L14.7582 14.2782L14.7706 14.2682L14.7829 14.258L13.7586 13.0288ZM13.6434 13.0864L13.2039 11.548L13.2039 11.548L13.6434 13.0864ZM11.0226 11.5056C9.89445 11.5056 8.88994 11.9285 8.09839 12.7304L10.3757 14.9784C10.5697 14.7819 10.7556 14.7056 11.0226 14.7056V11.5056ZM8.10567 12.723C7.31248 13.5162 6.89784 14.5185 6.89784 15.64H10.0978C10.0978 15.3663 10.176 15.1782 10.3684 14.9858L8.10567 12.723ZM6.89784 15.64C6.89784 16.7595 7.3156 17.7573 8.10567 18.5474L10.3684 16.2846C10.1729 16.0891 10.0978 15.9029 10.0978 15.64H6.89784ZM8.10567 18.5474C8.89885 19.3406 9.90115 19.7552 11.0226 19.7552V16.5552C10.7489 16.5552 10.5608 16.477 10.3684 16.2846L8.10567 18.5474ZM11.0226 19.7552H13.4994V16.5552H11.0226V19.7552ZM13.4994 19.7552C13.3591 19.7552 13.1944 19.7283 13.0261 19.6547C12.8581 19.5811 12.7277 19.4791 12.6342 19.3783L14.9791 17.2009C14.5951 16.7873 14.0687 16.5552 13.4994 16.5552V19.7552ZM12.7179 19.4621C12.6171 19.3685 12.5151 19.2382 12.4416 19.0701C12.368 18.9019 12.341 18.7371 12.341 18.5968H15.541C15.541 18.0275 15.3089 17.5012 14.8954 17.1171L12.7179 19.4621ZM12.341 18.5968V19H15.541V18.5968H12.341ZM13.941 17.4H11.0226V20.6H13.941V17.4ZM11.0226 17.4C10.6924 17.4 10.4068 17.322 10.136 17.1649L8.53003 19.9327C9.29605 20.3772 10.1369 20.6 11.0226 20.6V17.4ZM10.1435 17.1693C9.86659 17.0066 9.65607 16.796 9.49337 16.5191L6.7343 18.1401C7.1732 18.8871 7.77549 19.4894 8.52256 19.9283L10.1435 17.1693ZM9.49774 16.5266C9.34062 16.2558 9.26264 15.9702 9.26264 15.64H6.06264C6.06264 16.5258 6.28546 17.3666 6.72994 18.1326L9.49774 16.5266ZM9.26264 15.64C9.26264 15.3002 9.34207 15.0184 9.49337 14.7609L6.7343 13.1399C6.284 13.9064 6.06264 14.751 6.06264 15.64H9.26264ZM9.49774 14.7534C9.66159 14.471 9.87142 14.261 10.1435 14.1011L8.52256 11.3421C7.77065 11.7838 7.16769 12.393 6.72994 13.1474L9.49774 14.7534ZM10.136 14.1055C10.4068 13.9484 10.6924 13.8704 11.0226 13.8704V10.6704C10.1369 10.6704 9.29605 10.8932 8.53003 11.3377L10.136 14.1055ZM11.0226 13.8704H13.941V10.6704H11.0226V13.8704ZM12.341 12.2704V12.6736H15.541V12.2704H12.341ZM12.341 12.6736C12.341 12.4833 12.383 12.3144 12.4416 12.1777L15.3829 13.4383C15.4798 13.212 15.541 12.9535 15.541 12.6736H12.341ZM12.3738 12.3685C12.406 12.2557 12.4563 12.1459 12.5234 12.0453L15.1859 13.8203C15.3042 13.6429 15.3929 13.4499 15.4507 13.2475L12.3738 12.3685ZM12.6052 11.9333C12.6595 11.8655 12.7075 11.822 12.7343 11.7996L14.7829 14.258C14.8866 14.1716 14.9986 14.0641 15.104 13.9323L12.6052 11.9333ZM12.7591 11.7794C12.9139 11.6556 13.0725 11.5855 13.2039 11.548L14.083 14.6248C14.304 14.5617 14.5393 14.4532 14.7582 14.2782L12.7591 11.7794ZM13.2039 11.548C13.3154 11.5161 13.4165 11.5056 13.4994 11.5056V14.7056C13.6848 14.7056 13.8819 14.6823 14.083 14.6248L13.2039 11.548ZM13.4994 11.5056H11.0226V14.7056H13.4994V11.5056Z" fill="white"/>
<path d="M19.3176 15.6304L23.676 19H22.6584C22.3896 19 22.1496 18.9168 21.9384 18.7504L17.8968 15.6304L21.9384 12.5104C22.1496 12.3504 22.3864 12.2704 22.6488 12.2704H22.812H23.1192H23.676L19.3176 15.6304Z" fill="white"/>
<path d="M19.3176 15.6304L18.3407 14.3632L16.6994 15.6286L18.339 16.8962L19.3176 15.6304ZM23.676 19V20.6H28.3614L24.6546 17.7342L23.676 19ZM21.9384 18.7504L22.9286 17.4936L22.9224 17.4887L22.9161 17.4839L21.9384 18.7504ZM17.8968 15.6304L16.9191 14.3639L15.2785 15.6304L16.9191 16.8969L17.8968 15.6304ZM21.9384 12.5104L20.9722 11.2351L20.9664 11.2394L20.9607 11.2439L21.9384 12.5104ZM23.676 12.2704L24.6529 13.5376L28.372 10.6704H23.676V12.2704ZM18.339 16.8962L22.6974 20.2658L24.6546 17.7342L20.2962 14.3646L18.339 16.8962ZM23.676 17.4H22.6584V20.6H23.676V17.4ZM22.6584 17.4C22.6919 17.4 22.7427 17.4057 22.8009 17.4259C22.859 17.446 22.9024 17.4729 22.9286 17.4936L20.9482 20.0072C21.4415 20.3958 22.0303 20.6 22.6584 20.6V17.4ZM22.9161 17.4839L18.8745 14.3639L16.9191 16.8969L20.9607 20.0169L22.9161 17.4839ZM18.8745 16.8969L22.9161 13.7769L20.9607 11.2439L16.9191 14.3639L18.8745 16.8969ZM22.9046 13.7857C22.8811 13.8036 22.841 13.8278 22.7865 13.8462C22.7319 13.8647 22.683 13.8704 22.6488 13.8704V10.6704C22.0339 10.6704 21.4586 10.8666 20.9722 11.2351L22.9046 13.7857ZM22.6488 13.8704H22.812V10.6704H22.6488V13.8704ZM22.812 13.8704H23.1192V10.6704H22.812V13.8704ZM23.1192 13.8704H23.676V10.6704H23.1192V13.8704ZM22.6991 11.0032L18.3407 14.3632L20.2945 16.8976L24.6529 13.5376L22.6991 11.0032Z" fill="white"/>
</g>
<path d="M44.912 19.74C41.408 19.74 38.832 17.228 38.816 13.884C38.832 10.556 41.36 8.06 44.8 8.06C48.8 8.06 50.128 10.204 50.256 12.3H47.584C47.392 11.676 47.168 10.684 44.864 10.684C43.056 10.684 41.52 11.516 41.52 13.9C41.52 16.268 43.04 17.116 44.832 17.116C47.312 17.116 47.552 16.108 47.76 15.5H50.432C50.16 18.172 48.688 19.74 44.912 19.74ZM57.9348 18.7C57.3748 19.356 56.5748 19.756 55.5028 19.756C53.1668 19.756 51.5028 17.836 51.5028 15.452C51.5028 13.068 53.1668 11.26 55.5028 11.26C56.5588 11.26 57.3588 11.628 57.9348 12.252C58.2548 12.604 58.2708 13.276 58.4148 13.74L58.8468 13.596C58.7028 13.148 58.3988 12.588 58.3988 12.092L58.4148 11.5H60.9268V19.5H58.4148L58.3988 18.844C58.3988 18.364 58.7028 17.804 58.8308 17.34L58.4148 17.212C58.2708 17.676 58.2548 18.332 57.9348 18.7ZM54.0148 15.452C54.0148 16.508 54.7988 17.42 55.7108 17.42C56.6228 17.42 57.4388 16.54 57.4388 15.452C57.4388 14.412 56.8468 13.596 55.7108 13.596C54.7988 13.596 54.0148 14.38 54.0148 15.452ZM65.8576 11.932C66.8016 11.372 67.8256 11.26 69.2336 11.26V13.596C67.1376 13.596 64.8656 14.38 64.8656 16.588V19.5H62.3536V11.5H64.8656C64.8656 11.484 64.8656 11.484 64.8656 11.468V11.5C64.8496 12.268 64.4496 13.164 64.1136 13.852L64.5136 14.044C64.8496 13.34 65.2016 12.348 65.8576 11.932ZM76.3566 18.7C75.7966 19.356 74.9966 19.756 73.9246 19.756C71.5886 19.756 69.9246 17.836 69.9246 15.452C69.9246 13.068 71.5886 11.26 73.9246 11.26C74.9806 11.26 75.7806 11.628 76.3566 12.252C76.6766 12.604 76.6926 13.276 76.8366 13.74L77.2686 13.596C77.1247 13.148 76.8206 12.588 76.8206 12.092L76.8366 11.5H79.3486V19.5H76.8366L76.8206 18.844C76.8206 18.364 77.1247 17.804 77.2526 17.34L76.8366 17.212C76.6926 17.676 76.6766 18.332 76.3566 18.7ZM72.4366 15.452C72.4366 16.508 73.2206 17.42 74.1326 17.42C75.0446 17.42 75.8606 16.54 75.8606 15.452C75.8606 14.412 75.2686 13.596 74.1326 13.596C73.2206 13.596 72.4366 14.38 72.4366 15.452ZM84.2635 13.148L86.1035 11.516H89.0955L85.7355 14.604L89.9275 19.516H86.8875L84.0715 15.996L83.2875 16.62L83.3355 19.5H80.8075V7.9H83.3355V12.732C83.3355 13.484 82.9355 14.332 82.6315 15.004L83.0315 15.196C83.3355 14.508 83.7035 13.644 84.2635 13.148ZM96.716 18.7C96.156 19.356 95.356 19.756 94.284 19.756C91.948 19.756 90.284 17.836 90.284 15.452C90.284 13.068 91.948 11.26 94.284 11.26C95.34 11.26 96.14 11.628 96.716 12.252C97.036 12.604 97.052 13.276 97.196 13.74L97.628 13.596C97.484 13.148 97.18 12.588 97.18 12.092L97.196 11.5H99.708V19.5H97.196L97.18 18.844C97.18 18.364 97.484 17.804 97.612 17.34L97.196 17.212C97.052 17.676 97.036 18.332 96.716 18.7ZM92.796 15.452C92.796 16.508 93.58 17.42 94.492 17.42C95.404 17.42 96.22 16.54 96.22 15.452C96.22 14.412 95.628 13.596 94.492 13.596C93.58 13.596 92.796 14.38 92.796 15.452ZM110.575 19.5H107.887V10.828H105.103V8.3H113.359V10.828H110.575V19.5ZM119.833 19.756C116.313 19.756 114.393 17.836 114.393 15.452C114.393 13.068 116.473 11.26 119.417 11.26C122.441 11.26 124.313 13.244 124.297 15.484C124.297 15.66 124.297 16.044 124.297 16.188L117.545 16.172C117.545 16.876 118.217 17.676 119.593 17.676C120.473 17.676 121.017 17.436 121.177 17.212H124.121C123.881 18.044 122.585 19.756 119.833 19.756ZM117.545 14.7H121.289C121.289 13.772 120.601 13.132 119.481 13.132C118.345 13.132 117.545 13.852 117.545 14.7ZM125.502 15.468C125.502 12.7 127.246 11.26 129.918 11.26C132.734 11.26 134.366 12.86 134.51 14.78H131.774C131.806 14.956 131.47 13.612 129.838 13.628C128.798 13.628 127.998 14.22 127.998 15.436C127.982 16.636 128.718 17.372 129.822 17.372C131.39 17.388 131.87 16.044 131.822 16.204H134.558C134.27 18.268 132.606 19.756 129.934 19.756C127.182 19.756 125.502 18.204 125.502 15.468ZM139.043 11.804C139.651 11.388 140.355 11.26 141.283 11.26C142.899 11.26 144.131 12.188 144.131 14.012V19.5H141.603V15.836C141.603 14.444 141.139 13.836 140.147 13.836C139.059 13.836 138.163 14.46 138.163 15.836V19.5H135.635V7.884H138.163V11.468C138.163 12.252 137.763 13.18 137.475 13.916L137.875 14.076C138.163 13.34 138.419 12.284 139.043 11.804Z" fill="#202124"/>
<defs>
<clipPath id="clip0_1_823">
<rect width="32" height="32" rx="3.2" fill="white"/>
</clipPath>
</defs>
</svg>
