<svg width="20" height="20" viewBox="0 0 20 20" fill="none" xmlns="http://www.w3.org/2000/svg">
<path d="M1.86402 14.455C2.41002 16.638 2.68302 17.729 3.49602 18.365C4.31002 19 5.43502 19 7.68502 19H12.315C14.565 19 15.69 19 16.505 18.365C17.318 17.729 17.591 16.638 18.136 14.455C18.994 11.023 19.423 9.308 18.523 8.154C17.622 7 15.853 7 12.316 7H7.68502C4.14702 7 2.37902 7 1.47802 8.154C0.949017 8.831 0.878017 9.702 1.08402 11" stroke="#202124" stroke-width="0.5" stroke-linecap="round"/>
<path d="M17.5 7.5L16.79 4.895C16.516 3.89 16.379 3.388 16.098 3.009C15.8178 2.63246 15.4373 2.3424 15 2.172C14.56 2 14.04 2 13 2M2.5 7.5L3.21 4.895C3.484 3.89 3.621 3.388 3.902 3.009C4.18218 2.63246 4.56269 2.3424 5 2.172C5.44 2 5.96 2 7 2" stroke="#202124" stroke-width="0.5"/>
<path d="M7 2C7 1.73478 7.10536 1.48043 7.29289 1.29289C7.48043 1.10536 7.73478 1 8 1H12C12.2652 1 12.5196 1.10536 12.7071 1.29289C12.8946 1.48043 13 1.73478 13 2C13 2.26522 12.8946 2.51957 12.7071 2.70711C12.5196 2.89464 12.2652 3 12 3H8C7.73478 3 7.48043 2.89464 7.29289 2.70711C7.10536 2.51957 7 2.26522 7 2Z" stroke="#202124" stroke-width="0.5"/>
</svg>
