<svg width="25" height="24" viewBox="0 0 25 24" fill="none" xmlns="http://www.w3.org/2000/svg" >
<path d="M14.1741 14.439C14.9401 16.7093 15.4551 19.0566 15.7101 21.439C14.6463 21.8114 13.5271 22.0011 12.4001 22C10.4173 22.003 8.47879 21.4139 6.83305 20.308C7.59991 18.887 8.645 17.635 9.90604 16.6265C11.1671 15.618 12.6182 14.8737 14.1731 14.438L14.1741 14.439ZM21.9731 14.902C21.259 17.2482 19.7096 19.2513 17.6181 20.532C17.3384 18.3344 16.8495 16.1686 16.1581 14.064C18.1358 13.8596 20.1335 14.1475 21.9731 14.902ZM12.5451 10.485C12.8771 11.163 13.1881 11.855 13.4751 12.558C10.0117 13.5731 7.07246 15.8834 5.26805 19.009C4.25411 17.97 3.47658 16.7243 2.98866 15.357C2.50074 13.9897 2.31394 12.5332 2.44105 11.087C5.78405 11.795 9.31105 11.589 12.5451 10.485ZM20.1201 5.644C21.7861 7.67864 22.5901 10.2843 22.3601 12.904C20.1602 12.076 17.7883 11.8113 15.4601 12.134C15.1386 11.3217 14.7867 10.5218 14.4051 9.736C16.5474 8.7383 18.4854 7.35068 20.1201 5.644ZM7.66605 3.19C9.16044 4.88504 10.4773 6.72865 11.5961 8.692C8.75787 9.59595 5.73302 9.74416 2.82005 9.122C3.58672 6.58128 5.32935 4.44812 7.66605 3.19ZM12.4001 2C14.7881 2 16.9811 2.837 18.7001 4.234C17.2115 5.79515 15.4402 7.05953 13.4801 7.96C12.3761 5.9838 11.0834 4.1191 9.62005 2.392C10.5237 2.13132 11.4596 1.99936 12.4001 2Z" fill="#98A2B3" />
</svg>