<svg width="25" height="24" viewBox="0 0 25 24" fill="none" xmlns="http://www.w3.org/2000/svg" >
<path d="M13.4281 2C14.5531 2.003 15.1241 2.009 15.6171 2.023L15.8111 2.03C16.0351 2.038 16.2561 2.048 16.5231 2.06C17.5871 2.11 18.3131 2.278 18.9501 2.525C19.6101 2.779 20.1661 3.123 20.7221 3.678C21.2305 4.1779 21.624 4.78259 21.8751 5.45C22.1221 6.087 22.2901 6.813 22.3401 7.878C22.3521 8.144 22.3621 8.365 22.3701 8.59L22.3761 8.784C22.3911 9.276 22.3971 9.847 22.3991 10.972L22.4001 11.718V13.028C22.4025 13.7574 22.3948 14.4868 22.3771 15.216L22.3711 15.41C22.3631 15.635 22.3531 15.856 22.3411 16.122C22.2911 17.187 22.1211 17.912 21.8751 18.55C21.6247 19.2178 21.2312 19.8226 20.7221 20.322C20.222 20.8303 19.6174 21.2238 18.9501 21.475C18.3131 21.722 17.5871 21.89 16.5231 21.94C16.2858 21.9512 16.0484 21.9612 15.8111 21.97L15.6171 21.976C15.1241 21.99 14.5531 21.997 13.4281 21.999L12.6821 22H11.3731C10.6433 22.0025 9.91358 21.9949 9.18405 21.977L8.99005 21.971C8.75266 21.962 8.51533 21.9517 8.27805 21.94C7.21405 21.89 6.48805 21.722 5.85005 21.475C5.18272 21.2244 4.57827 20.8308 4.07905 20.322C3.5701 19.8223 3.17628 19.2176 2.92505 18.55C2.67805 17.913 2.51005 17.187 2.46005 16.122C2.44891 15.8847 2.43891 15.6474 2.43005 15.41L2.42505 15.216C2.40662 14.4868 2.39829 13.7574 2.40005 13.028V10.972C2.39726 10.2426 2.4046 9.5132 2.42205 8.784L2.42905 8.59C2.43705 8.365 2.44705 8.144 2.45905 7.878C2.50905 6.813 2.67705 6.088 2.92405 5.45C3.17517 4.7819 3.56977 4.17702 4.08005 3.678C4.57914 3.16947 5.1832 2.77599 5.85005 2.525C6.48805 2.278 7.21305 2.11 8.27805 2.06C8.54405 2.048 8.76605 2.038 8.99005 2.03L9.18405 2.024C9.91324 2.00623 10.6426 1.99857 11.3721 2.001L13.4281 2ZM12.4001 7C11.074 7 9.8022 7.52678 8.86452 8.46447C7.92684 9.40215 7.40005 10.6739 7.40005 12C7.40005 13.3261 7.92684 14.5979 8.86452 15.5355C9.8022 16.4732 11.074 17 12.4001 17C13.7261 17 14.9979 16.4732 15.9356 15.5355C16.8733 14.5979 17.4001 13.3261 17.4001 12C17.4001 10.6739 16.8733 9.40215 15.9356 8.46447C14.9979 7.52678 13.7261 7 12.4001 7ZM12.4001 9C12.794 8.99993 13.1841 9.07747 13.5481 9.22817C13.9121 9.37887 14.2429 9.5998 14.5215 9.87833C14.8001 10.1569 15.0212 10.4875 15.172 10.8515C15.3228 11.2154 15.4005 11.6055 15.4006 11.9995C15.4006 12.3935 15.3231 12.7836 15.1724 13.1476C15.0217 13.5116 14.8008 13.8423 14.5222 14.121C14.2437 14.3996 13.913 14.6206 13.5491 14.7714C13.1851 14.9223 12.795 14.9999 12.4011 15C11.6054 15 10.8423 14.6839 10.2797 14.1213C9.71712 13.5587 9.40105 12.7956 9.40105 12C9.40105 11.2044 9.71712 10.4413 10.2797 9.87868C10.8423 9.31607 11.6054 9 12.4011 9M17.6511 5.5C17.3195 5.5 17.0016 5.6317 16.7672 5.86612C16.5327 6.10054 16.4011 6.41848 16.4011 6.75C16.4011 7.08152 16.5327 7.39946 16.7672 7.63388C17.0016 7.8683 17.3195 8 17.6511 8C17.9826 8 18.3005 7.8683 18.5349 7.63388C18.7694 7.39946 18.9011 7.08152 18.9011 6.75C18.9011 6.41848 18.7694 6.10054 18.5349 5.86612C18.3005 5.6317 17.9826 5.5 17.6511 5.5Z" fill="#98A2B3" />
</svg>